# xmcd
#
# Track frame offsets:
#	150
#	11557
#	24860
#	38117
#	47370
#	59902
#	78762
#	87705
#	115902
#	128020
#	139725
#
# Disc length: 2036 seconds
#
# Revision: 1
# Processed by: cddbd v1.4b41PL1 Copyright (c) Steve Scherf et al.
# Submitted via: audiograbber 1.80
#
DISCID=8807f20b
DTITLE=Various Arthist - Love Songs
DYEAR=1900
DGENRE=
TTITLE0=Save The Last Dance For Me
TTITLE1=When A Man Loves A Woman
TTITLE2=Baby Now That I've Found You
TTITLE3=Every Beat Of My Heart
TTITLE4=Love
TTITLE5=The Man That Got Away
TTITLE6=Groovy Kind Of Love
TTITLE7=Let Your Love Flow
TTITLE8=The Night Has A Thousand Eves
TTITLE9=Tender Years
TTITLE10=Everlasting Love
EXTD=
EXTT0=
EXTT1=
EXTT2=
EXTT3=
EXTT4=
EXTT5=
EXTT6=
EXTT7=
EXTT8=
EXTT9=
EXTT10=
PLAYORDER=
